<svg width="47" height="47" viewBox="0 0 47 47" fill="none" xmlns="http://www.w3.org/2000/svg">
<circle opacity="0.1" cx="25.5" cy="21.6738" r="21.5" fill="#F6762C"/>
<path d="M15.0003 15H5.00009C3.61101 15 2.43054 15.411 1.45812 16.2329C0.486163 17.0549 0 18.0529 0 19.2274V27.6818C0 28.8563 0.485889 29.8541 1.45812 30.676C2.43045 31.4977 3.61129 31.9089 5.00009 31.9089H10.8334C11.5276 31.9089 12.118 32.1145 12.6042 32.5254C13.0904 32.936 13.3334 33.4354 13.3334 34.0228V34.7269C13.3334 36.2829 12.6822 37.6109 11.3802 38.7119C10.0782 39.8125 8.50712 40.3629 6.66654 40.3629H5.00009C4.54841 40.3629 4.15793 40.5027 3.82792 40.7814C3.49818 41.0601 3.33318 41.3905 3.33318 41.7722V44.5907C3.33318 44.9717 3.49818 45.3027 3.82792 45.5815C4.1582 45.8601 4.54832 46 5.00009 46H6.66664C8.47237 46 10.1955 45.7023 11.8362 45.1081C13.4768 44.5137 14.896 43.7099 16.094 42.697C17.2917 41.6841 18.2423 40.4845 18.9454 39.0973C19.6484 37.7102 20 36.2534 20 34.727V19.2271C20 18.0526 19.5138 17.0546 18.5418 16.2328C17.5697 15.411 16.389 15 15.0003 15Z" fill="#F6762C"/>
<path d="M35.7546 16.1115C34.9247 15.2816 33.9167 14.8665 32.7306 14.8665H24.1923C23.0062 14.8665 21.9983 15.2816 21.1683 16.1115C20.3384 16.9418 19.9235 17.9496 19.9235 19.1358V27.6741C19.9235 28.8601 20.3384 29.8679 21.1683 30.6979C21.9983 31.5278 23.0063 31.9431 24.1923 31.9431H29.1731C29.7658 31.9431 30.2703 32.1507 30.6854 32.5656C31.1 32.9806 31.3079 33.4846 31.3079 34.0779V34.789C31.3079 36.3604 30.7519 37.7015 29.64 38.8135C28.5284 39.925 27.1872 40.4809 25.6155 40.4809H24.1923C23.8069 40.4809 23.4732 40.6221 23.1918 40.9036C22.9101 41.185 22.769 41.5187 22.769 41.9041V44.7506C22.769 45.1354 22.9101 45.4697 23.1918 45.7512C23.4731 46.0326 23.8069 46.1739 24.1923 46.1739H25.6155C27.1571 46.1739 28.6283 45.8732 30.0294 45.2731C31.43 44.6729 32.6416 43.861 33.6646 42.8381C34.6874 41.8152 35.4996 40.6033 36.0995 39.2027C36.6997 37.8022 37.0001 36.3307 37.0001 34.7891V19.1354C36.9998 17.9493 36.5851 16.9415 35.7546 16.1115Z" fill="#F6762C"/>
</svg>
